<?xml version="1.0" encoding="utf-8"?>
<!-- Generator: Adobe Illustrator 25.2.0, SVG Export Plug-In . SVG Version: 6.00 Build 0)  -->
<svg version="1.1" id="Laag_1" xmlns="http://www.w3.org/2000/svg" xmlns:xlink="http://www.w3.org/1999/xlink" x="0px" y="0px"
	 viewBox="0 0 28.7 24.2" style="enable-background:new 0 0 28.7 24.2;" xml:space="preserve">
<style type="text/css">
	.st0{fill-rule:evenodd;clip-rule:evenodd;fill:#262C33;}
</style>
<g transform="translate(0, 0) scale(0.6041667)">
	<path class="st0" d="M41.6,0L12.9,28.7v-2.9L38.6,0h-4.1L23.6,10.9L12.7,0H8.6l12.9,12.9l-1.5,1.5L5.7,0H1.6L18,16.5l-1.5,1.5
		L0,1.4V40h2.9V8.4L5,10.5V40h2.9V13.4l2.1,2.1V40h2.9v-0.1l10.8-10.8L34.5,40h3V15.3l2.1-2.1V40h2.9V10.3l2.1-2.1V40h2.9V5.4h-0.2
		l0.2-0.2V1.2L12.9,35.8v-2.9L45.7,0H41.6L41.6,0z M32.7,20l1.8-1.8v3.7L32.7,20z M12.9,18.3l1.6,1.6l-1.6,1.6
		C12.9,21.6,12.9,18.3,12.9,18.3z M29.2,23.5l1.5-1.5l3.9,3.9v3C34.6,28.9,29.2,23.5,29.2,23.5z M25.7,27.1l1.5-1.5l7.4,7.4V36
		C34.6,36,25.7,27.1,25.7,27.1z"/>
</g>
</svg>
